# xmcd
#
# Track frame offsets:
#	150
#	16523
#	33827
#	56223
#	73127
#	97212
#	111860
#	132667
#	149756
#	171525
#	184838
#	208960
#	229207
#	244652
#	258955
#	271923
#	285824
#	298060
#	312092
#	325949
#
# Disc length: 4614 seconds
#
# Revision: 1
# Processed by: cddbd v1.5.2PL0 Copyright (c) Steve Scherf et al.
# Submitted via: audiograbber 1.83.01
#
DISCID=3c120414
DTITLE=Louis Armstrong - Special portrait Disc 2
DYEAR=1900
DGENRE=
TTITLE0=High society
TTITLE1=All of me
TTITLE2=Beale Street blues
TTITLE3=Moonlight in Vermont -with Ella Fitzgerald
TTITLE4=All that meat and no potatoes
TTITLE5=Because of you
TTITLE6=Black and blue
TTITLE7=Can't we be friends
TTITLE8=Chantez les bas
TTITLE9=Heebies jeebies
TTITLE10=Hesitating blues
TTITLE11=I'm crazy 'bout 
TTITLE12=The last time
TTITLE13=I've got a feeling I'm falling
TTITLE14=No papa no
TTITLE15=You're a real sweetheart
TTITLE16=Yes, I'm in the barrel
TTITLE17=When your lover has gone
TTITLE18=Kiss of fire
TTITLE19=Loveless love
EXTD=
EXTT0=
EXTT1=
EXTT2=
EXTT3=
EXTT4=
EXTT5=
EXTT6=
EXTT7=
EXTT8=
EXTT9=
EXTT10=
EXTT11=
EXTT12=
EXTT13=
EXTT14=
EXTT15=
EXTT16=
EXTT17=
EXTT18=
EXTT19=
PLAYORDER=
